<svg xmlns="http://www.w3.org/2000/svg" viewBox="0 0 1920 1080"><g transform="
          rotate(0 960 540) 
          translate(-0 -0)
          scale(1)
        "><rect width="1920" height="1080" fill="rgb(230, 118, 32)"></rect><g transform="translate(0, 0)"><path fill="rgb(201, 106, 27)" fill-opacity="1" d="M0,151.261L10.323,150.032C20.645,148.803,41.29,146.345,61.935,145.963C82.581,145.582,103.226,147.279,123.871,147.469C144.516,147.66,165.161,146.345,185.806,129.936C206.452,113.526,227.097,82.021,247.742,79.361C268.387,76.7,289.032,102.883,309.677,94.858C330.323,86.834,350.968,44.601,371.613,42.206C392.258,39.811,412.903,77.253,433.548,86.58C454.194,95.906,474.839,77.116,495.484,59.724C516.129,42.332,536.774,26.338,557.419,34.594C578.065,42.85,598.71,75.355,619.355,81.216C640,87.078,660.645,66.294,681.29,55.892C701.935,45.489,722.581,45.467,743.226,60.546C763.871,75.625,784.516,105.805,805.161,122.013C825.806,138.222,846.452,140.459,867.097,122.004C887.742,103.548,908.387,64.398,929.032,48.267C949.677,32.136,970.323,39.022,990.968,54.117C1011.613,69.211,1032.258,92.514,1052.903,108.999C1073.548,125.483,1094.194,135.15,1114.839,128.792C1135.484,122.434,1156.129,100.051,1176.774,77.277C1197.419,54.503,1218.065,31.338,1238.71,18.585C1259.355,5.831,1280,3.489,1300.645,17.605C1321.29,31.722,1341.935,62.296,1362.581,71.907C1383.226,81.517,1403.871,70.163,1424.516,58.362C1445.161,46.561,1465.806,34.312,1486.452,30.966C1507.097,27.62,1527.742,33.177,1548.387,37.118C1569.032,41.059,1589.677,43.385,1610.323,57.024C1630.968,70.663,1651.613,95.615,1672.258,112.607C1692.903,129.6,1713.548,138.632,1734.194,144.051C1754.839,149.469,1775.484,151.272,1796.129,140.839C1816.774,130.405,1837.419,107.735,1858.065,89.698C1878.71,71.661,1899.355,58.257,1909.677,51.555L1920,44.854L1920,1080L1909.677,1080C1899.355,1080,1878.71,1080,1858.065,1080C1837.419,1080,1816.774,1080,1796.129,1080C1775.484,1080,1754.839,1080,1734.194,1080C1713.548,1080,1692.903,1080,1672.258,1080C1651.613,1080,1630.968,1080,1610.323,1080C1589.677,1080,1569.032,1080,1548.387,1080C1527.742,1080,1507.097,1080,1486.452,1080C1465.806,1080,1445.161,1080,1424.516,1080C1403.871,1080,1383.226,1080,1362.581,1080C1341.935,1080,1321.29,1080,1300.645,1080C1280,1080,1259.355,1080,1238.71,1080C1218.065,1080,1197.419,1080,1176.774,1080C1156.129,1080,1135.484,1080,1114.839,1080C1094.194,1080,1073.548,1080,1052.903,1080C1032.258,1080,1011.613,1080,990.968,1080C970.323,1080,949.677,1080,929.032,1080C908.387,1080,887.742,1080,867.097,1080C846.452,1080,825.806,1080,805.161,1080C784.516,1080,763.871,1080,743.226,1080C722.581,1080,701.935,1080,681.29,1080C660.645,1080,640,1080,619.355,1080C598.71,1080,578.065,1080,557.419,1080C536.774,1080,516.129,1080,495.484,1080C474.839,1080,454.194,1080,433.548,1080C412.903,1080,392.258,1080,371.613,1080C350.968,1080,330.323,1080,309.677,1080C289.032,1080,268.387,1080,247.742,1080C227.097,1080,206.452,1080,185.806,1080C165.161,1080,144.516,1080,123.871,1080C103.226,1080,82.581,1080,61.935,1080C41.29,1080,20.645,1080,10.323,1080L0,1080Z"></path></g><g transform="translate(0, 154.28571428571428)"><path fill="rgb(172, 93, 23)" fill-opacity="1" d="M0,14.873L10.323,34.635C20.645,54.396,41.29,93.919,61.935,116.643C82.581,139.367,103.226,145.291,123.871,148.463C144.516,151.636,165.161,152.056,185.806,143.263C206.452,134.471,227.097,116.465,247.742,105.222C268.387,93.978,289.032,89.496,309.677,80.339C330.323,71.182,350.968,57.35,371.613,68.276C392.258,79.201,412.903,114.885,433.548,129.766C454.194,144.647,474.839,138.725,495.484,137.041C516.129,135.358,536.774,137.913,557.419,134.949C578.065,131.984,598.71,123.501,619.355,102.338C640,81.175,660.645,47.332,681.29,51.385C701.935,55.438,722.581,97.386,743.226,106.916C763.871,116.447,784.516,93.56,805.161,74.098C825.806,54.637,846.452,38.601,867.097,38.27C887.742,37.94,908.387,53.315,929.032,74.74C949.677,96.165,970.323,123.64,990.968,125.288C1011.613,126.936,1032.258,102.757,1052.903,88.508C1073.548,74.26,1094.194,69.943,1114.839,58.47C1135.484,46.997,1156.129,28.369,1176.774,18.834C1197.419,9.299,1218.065,8.857,1238.71,17.245C1259.355,25.632,1280,42.848,1300.645,66.182C1321.29,89.515,1341.935,118.965,1362.581,128.95C1383.226,138.936,1403.871,129.458,1424.516,108.236C1445.161,87.013,1465.806,54.047,1486.452,58.103C1507.097,62.159,1527.742,103.238,1548.387,109.655C1569.032,116.072,1589.677,87.827,1610.323,81.207C1630.968,74.587,1651.613,89.593,1672.258,90.518C1692.903,91.442,1713.548,78.285,1734.194,79.831C1754.839,81.376,1775.484,97.624,1796.129,105.527C1816.774,113.431,1837.419,112.99,1858.065,105.409C1878.71,97.829,1899.355,83.108,1909.677,75.748L1920,68.388L1920,925.714L1909.677,925.714C1899.355,925.714,1878.71,925.714,1858.065,925.714C1837.419,925.714,1816.774,925.714,1796.129,925.714C1775.484,925.714,1754.839,925.714,1734.194,925.714C1713.548,925.714,1692.903,925.714,1672.258,925.714C1651.613,925.714,1630.968,925.714,1610.323,925.714C1589.677,925.714,1569.032,925.714,1548.387,925.714C1527.742,925.714,1507.097,925.714,1486.452,925.714C1465.806,925.714,1445.161,925.714,1424.516,925.714C1403.871,925.714,1383.226,925.714,1362.581,925.714C1341.935,925.714,1321.29,925.714,1300.645,925.714C1280,925.714,1259.355,925.714,1238.71,925.714C1218.065,925.714,1197.419,925.714,1176.774,925.714C1156.129,925.714,1135.484,925.714,1114.839,925.714C1094.194,925.714,1073.548,925.714,1052.903,925.714C1032.258,925.714,1011.613,925.714,990.968,925.714C970.323,925.714,949.677,925.714,929.032,925.714C908.387,925.714,887.742,925.714,867.097,925.714C846.452,925.714,825.806,925.714,805.161,925.714C784.516,925.714,763.871,925.714,743.226,925.714C722.581,925.714,701.935,925.714,681.29,925.714C660.645,925.714,640,925.714,619.355,925.714C598.71,925.714,578.065,925.714,557.419,925.714C536.774,925.714,516.129,925.714,495.484,925.714C474.839,925.714,454.194,925.714,433.548,925.714C412.903,925.714,392.258,925.714,371.613,925.714C350.968,925.714,330.323,925.714,309.677,925.714C289.032,925.714,268.387,925.714,247.742,925.714C227.097,925.714,206.452,925.714,185.806,925.714C165.161,925.714,144.516,925.714,123.871,925.714C103.226,925.714,82.581,925.714,61.935,925.714C41.29,925.714,20.645,925.714,10.323,925.714L0,925.714Z"></path></g><g transform="translate(0, 308.57142857142856)"><path fill="rgb(143, 81, 18)" fill-opacity="1" d="M0,87.063L10.323,86.993C20.645,86.924,41.29,86.784,61.935,85.27C82.581,83.756,103.226,80.868,123.871,78.333C144.516,75.798,165.161,73.617,185.806,63.24C206.452,52.862,227.097,34.288,247.742,23.196C268.387,12.105,289.032,8.496,309.677,13.649C330.323,18.803,350.968,32.718,371.613,41.466C392.258,50.214,412.903,53.795,433.548,54.606C454.194,55.418,474.839,53.46,495.484,58.033C516.129,62.607,536.774,73.712,557.419,81.713C578.065,89.715,598.71,94.614,619.355,102.283C640,109.953,660.645,120.392,681.29,118.61C701.935,116.827,722.581,102.821,743.226,88.339C763.871,73.857,784.516,58.898,805.161,59.271C825.806,59.644,846.452,75.349,867.097,72.854C887.742,70.36,908.387,49.666,929.032,55.282C949.677,60.898,970.323,92.825,990.968,99.092C1011.613,105.359,1032.258,85.966,1052.903,90.287C1073.548,94.607,1094.194,122.641,1114.839,134.456C1135.484,146.271,1156.129,141.867,1176.774,129.505C1197.419,117.144,1218.065,96.824,1238.71,95.577C1259.355,94.331,1280,112.157,1300.645,110.693C1321.29,109.229,1341.935,88.473,1362.581,79.939C1383.226,71.404,1403.871,75.09,1424.516,67.017C1445.161,58.943,1465.806,39.111,1486.452,42.338C1507.097,45.564,1527.742,71.851,1548.387,68.672C1569.032,65.493,1589.677,32.849,1610.323,27.843C1630.968,22.837,1651.613,45.468,1672.258,66.396C1692.903,87.323,1713.548,106.546,1734.194,95.491C1754.839,84.435,1775.484,43.101,1796.129,40.805C1816.774,38.51,1837.419,75.255,1858.065,81.062C1878.71,86.869,1899.355,61.739,1909.677,49.174L1920,36.609L1920,771.429L1909.677,771.429C1899.355,771.429,1878.71,771.429,1858.065,771.429C1837.419,771.429,1816.774,771.429,1796.129,771.429C1775.484,771.429,1754.839,771.429,1734.194,771.429C1713.548,771.429,1692.903,771.429,1672.258,771.429C1651.613,771.429,1630.968,771.429,1610.323,771.429C1589.677,771.429,1569.032,771.429,1548.387,771.429C1527.742,771.429,1507.097,771.429,1486.452,771.429C1465.806,771.429,1445.161,771.429,1424.516,771.429C1403.871,771.429,1383.226,771.429,1362.581,771.429C1341.935,771.429,1321.29,771.429,1300.645,771.429C1280,771.429,1259.355,771.429,1238.71,771.429C1218.065,771.429,1197.419,771.429,1176.774,771.429C1156.129,771.429,1135.484,771.429,1114.839,771.429C1094.194,771.429,1073.548,771.429,1052.903,771.429C1032.258,771.429,1011.613,771.429,990.968,771.429C970.323,771.429,949.677,771.429,929.032,771.429C908.387,771.429,887.742,771.429,867.097,771.429C846.452,771.429,825.806,771.429,805.161,771.429C784.516,771.429,763.871,771.429,743.226,771.429C722.581,771.429,701.935,771.429,681.29,771.429C660.645,771.429,640,771.429,619.355,771.429C598.71,771.429,578.065,771.429,557.419,771.429C536.774,771.429,516.129,771.429,495.484,771.429C474.839,771.429,454.194,771.429,433.548,771.429C412.903,771.429,392.258,771.429,371.613,771.429C350.968,771.429,330.323,771.429,309.677,771.429C289.032,771.429,268.387,771.429,247.742,771.429C227.097,771.429,206.452,771.429,185.806,771.429C165.161,771.429,144.516,771.429,123.871,771.429C103.226,771.429,82.581,771.429,61.935,771.429C41.29,771.429,20.645,771.429,10.323,771.429L0,771.429Z"></path></g><g transform="translate(0, 462.85714285714283)"><path fill="rgb(114, 68, 14)" fill-opacity="1" d="M0,72.722L10.323,70.28C20.645,67.838,41.29,62.953,61.935,72.21C82.581,81.468,103.226,104.868,123.871,97.238C144.516,89.608,165.161,50.949,185.806,48.565C206.452,46.182,227.097,80.074,247.742,91.15C268.387,102.226,289.032,90.486,309.677,94.716C330.323,98.946,350.968,119.147,371.613,119.427C392.258,119.707,412.903,100.066,433.548,77.974C454.194,55.882,474.839,31.337,495.484,29.422C516.129,27.506,536.774,48.219,557.419,69.596C578.065,90.974,598.71,113.015,619.355,106.779C640,100.542,660.645,66.027,681.29,49.356C701.935,32.685,722.581,33.857,743.226,47.831C763.871,61.805,784.516,88.581,805.161,106.282C825.806,123.984,846.452,132.611,867.097,126.013C887.742,119.416,908.387,97.593,929.032,95.972C949.677,94.351,970.323,112.932,990.968,112.4C1011.613,111.868,1032.258,92.223,1052.903,90.76C1073.548,89.298,1094.194,106.018,1114.839,110.023C1135.484,114.028,1156.129,105.319,1176.774,93.319C1197.419,81.318,1218.065,66.026,1238.71,57.207C1259.355,48.388,1280,46.041,1300.645,38.805C1321.29,31.569,1341.935,19.442,1362.581,34.177C1383.226,48.911,1403.871,90.507,1424.516,113.716C1445.161,136.924,1465.806,141.746,1486.452,123.927C1507.097,106.109,1527.742,65.649,1548.387,45.086C1569.032,24.523,1589.677,23.857,1610.323,22.134C1630.968,20.411,1651.613,17.632,1672.258,21.613C1692.903,25.594,1713.548,36.335,1734.194,42.826C1754.839,49.318,1775.484,51.56,1796.129,49.486C1816.774,47.413,1837.419,41.024,1858.065,37.327C1878.71,33.63,1899.355,32.626,1909.677,32.124L1920,31.622L1920,617.143L1909.677,617.143C1899.355,617.143,1878.71,617.143,1858.065,617.143C1837.419,617.143,1816.774,617.143,1796.129,617.143C1775.484,617.143,1754.839,617.143,1734.194,617.143C1713.548,617.143,1692.903,617.143,1672.258,617.143C1651.613,617.143,1630.968,617.143,1610.323,617.143C1589.677,617.143,1569.032,617.143,1548.387,617.143C1527.742,617.143,1507.097,617.143,1486.452,617.143C1465.806,617.143,1445.161,617.143,1424.516,617.143C1403.871,617.143,1383.226,617.143,1362.581,617.143C1341.935,617.143,1321.29,617.143,1300.645,617.143C1280,617.143,1259.355,617.143,1238.71,617.143C1218.065,617.143,1197.419,617.143,1176.774,617.143C1156.129,617.143,1135.484,617.143,1114.839,617.143C1094.194,617.143,1073.548,617.143,1052.903,617.143C1032.258,617.143,1011.613,617.143,990.968,617.143C970.323,617.143,949.677,617.143,929.032,617.143C908.387,617.143,887.742,617.143,867.097,617.143C846.452,617.143,825.806,617.143,805.161,617.143C784.516,617.143,763.871,617.143,743.226,617.143C722.581,617.143,701.935,617.143,681.29,617.143C660.645,617.143,640,617.143,619.355,617.143C598.71,617.143,578.065,617.143,557.419,617.143C536.774,617.143,516.129,617.143,495.484,617.143C474.839,617.143,454.194,617.143,433.548,617.143C412.903,617.143,392.258,617.143,371.613,617.143C350.968,617.143,330.323,617.143,309.677,617.143C289.032,617.143,268.387,617.143,247.742,617.143C227.097,617.143,206.452,617.143,185.806,617.143C165.161,617.143,144.516,617.143,123.871,617.143C103.226,617.143,82.581,617.143,61.935,617.143C41.29,617.143,20.645,617.143,10.323,617.143L0,617.143Z"></path></g><g transform="translate(0, 617.1428571428571)"><path fill="rgb(85, 56, 9)" fill-opacity="1" d="M0,73.663L10.323,78.306C20.645,82.949,41.29,92.235,61.935,105.436C82.581,118.636,103.226,135.75,123.871,122.95C144.516,110.15,165.161,67.436,185.806,46.227C206.452,25.017,227.097,25.313,247.742,26.075C268.387,26.838,289.032,28.067,309.677,44.625C330.323,61.183,350.968,93.07,371.613,102.617C392.258,112.164,412.903,99.37,433.548,93.369C454.194,87.369,474.839,88.161,495.484,81.814C516.129,75.466,536.774,61.981,557.419,71.75C578.065,81.519,598.71,114.544,619.355,106.521C640,98.499,660.645,49.43,681.29,34.358C701.935,19.286,722.581,38.211,743.226,39.843C763.871,41.474,784.516,25.812,805.161,33.289C825.806,40.765,846.452,71.382,867.097,81.623C887.742,91.864,908.387,81.729,929.032,66.997C949.677,52.265,970.323,32.935,990.968,34.299C1011.613,35.662,1032.258,57.718,1052.903,66.688C1073.548,75.659,1094.194,71.545,1114.839,79.004C1135.484,86.463,1156.129,105.496,1176.774,102.936C1197.419,100.377,1218.065,76.225,1238.71,66.253C1259.355,56.28,1280,60.485,1300.645,73.133C1321.29,85.781,1341.935,106.871,1362.581,99.783C1383.226,92.695,1403.871,57.428,1424.516,45.048C1445.161,32.667,1465.806,43.173,1486.452,57.131C1507.097,71.09,1527.742,88.502,1548.387,102.473C1569.032,116.443,1589.677,126.971,1610.323,131.564C1630.968,136.156,1651.613,134.812,1672.258,112.365C1692.903,89.918,1713.548,46.367,1734.194,32.425C1754.839,18.482,1775.484,34.146,1796.129,44.038C1816.774,53.929,1837.419,58.048,1858.065,60.679C1878.71,63.31,1899.355,64.454,1909.677,65.026L1920,65.598L1920,462.857L1909.677,462.857C1899.355,462.857,1878.71,462.857,1858.065,462.857C1837.419,462.857,1816.774,462.857,1796.129,462.857C1775.484,462.857,1754.839,462.857,1734.194,462.857C1713.548,462.857,1692.903,462.857,1672.258,462.857C1651.613,462.857,1630.968,462.857,1610.323,462.857C1589.677,462.857,1569.032,462.857,1548.387,462.857C1527.742,462.857,1507.097,462.857,1486.452,462.857C1465.806,462.857,1445.161,462.857,1424.516,462.857C1403.871,462.857,1383.226,462.857,1362.581,462.857C1341.935,462.857,1321.29,462.857,1300.645,462.857C1280,462.857,1259.355,462.857,1238.71,462.857C1218.065,462.857,1197.419,462.857,1176.774,462.857C1156.129,462.857,1135.484,462.857,1114.839,462.857C1094.194,462.857,1073.548,462.857,1052.903,462.857C1032.258,462.857,1011.613,462.857,990.968,462.857C970.323,462.857,949.677,462.857,929.032,462.857C908.387,462.857,887.742,462.857,867.097,462.857C846.452,462.857,825.806,462.857,805.161,462.857C784.516,462.857,763.871,462.857,743.226,462.857C722.581,462.857,701.935,462.857,681.29,462.857C660.645,462.857,640,462.857,619.355,462.857C598.71,462.857,578.065,462.857,557.419,462.857C536.774,462.857,516.129,462.857,495.484,462.857C474.839,462.857,454.194,462.857,433.548,462.857C412.903,462.857,392.258,462.857,371.613,462.857C350.968,462.857,330.323,462.857,309.677,462.857C289.032,462.857,268.387,462.857,247.742,462.857C227.097,462.857,206.452,462.857,185.806,462.857C165.161,462.857,144.516,462.857,123.871,462.857C103.226,462.857,82.581,462.857,61.935,462.857C41.29,462.857,20.645,462.857,10.323,462.857L0,462.857Z"></path></g><g transform="translate(0, 771.4285714285714)"><path fill="rgb(56, 43, 5)" fill-opacity="1" d="M0,139.655L10.323,126.769C20.645,113.883,41.29,88.11,61.935,83.11C82.581,78.11,103.226,93.883,123.871,95.327C144.516,96.77,165.161,83.885,185.806,70.37C206.452,56.855,227.097,42.711,247.742,51.241C268.387,59.771,289.032,90.976,309.677,105.975C330.323,120.975,350.968,119.77,371.613,107.681C392.258,95.592,412.903,72.619,433.548,65.666C454.194,58.713,474.839,67.779,495.484,65.429C516.129,63.079,536.774,49.314,557.419,59.389C578.065,69.464,598.71,103.378,619.355,119.411C640,135.443,660.645,133.594,681.29,122.653C701.935,111.711,722.581,91.678,743.226,91.973C763.871,92.267,784.516,112.889,805.161,117.223C825.806,121.556,846.452,109.601,867.097,95.831C887.742,82.061,908.387,66.476,929.032,74.782C949.677,83.088,970.323,115.286,990.968,117.544C1011.613,119.801,1032.258,92.118,1052.903,82.407C1073.548,72.696,1094.194,80.956,1114.839,78.005C1135.484,75.054,1156.129,60.892,1176.774,71.063C1197.419,81.235,1218.065,115.742,1238.71,127.932C1259.355,140.123,1280,129.999,1300.645,113.999C1321.29,97.999,1341.935,76.124,1362.581,67.259C1383.226,58.394,1403.871,62.539,1424.516,66.03C1445.161,69.52,1465.806,72.358,1486.452,76.817C1507.097,81.277,1527.742,87.359,1548.387,87.733C1569.032,88.107,1589.677,82.773,1610.323,77.66C1630.968,72.547,1651.613,67.654,1672.258,74.403C1692.903,81.151,1713.548,99.541,1734.194,104.357C1754.839,109.173,1775.484,100.415,1796.129,85.12C1816.774,69.824,1837.419,47.99,1858.065,41.573C1878.71,35.155,1899.355,44.152,1909.677,48.651L1920,53.15L1920,308.571L1909.677,308.571C1899.355,308.571,1878.71,308.571,1858.065,308.571C1837.419,308.571,1816.774,308.571,1796.129,308.571C1775.484,308.571,1754.839,308.571,1734.194,308.571C1713.548,308.571,1692.903,308.571,1672.258,308.571C1651.613,308.571,1630.968,308.571,1610.323,308.571C1589.677,308.571,1569.032,308.571,1548.387,308.571C1527.742,308.571,1507.097,308.571,1486.452,308.571C1465.806,308.571,1445.161,308.571,1424.516,308.571C1403.871,308.571,1383.226,308.571,1362.581,308.571C1341.935,308.571,1321.29,308.571,1300.645,308.571C1280,308.571,1259.355,308.571,1238.71,308.571C1218.065,308.571,1197.419,308.571,1176.774,308.571C1156.129,308.571,1135.484,308.571,1114.839,308.571C1094.194,308.571,1073.548,308.571,1052.903,308.571C1032.258,308.571,1011.613,308.571,990.968,308.571C970.323,308.571,949.677,308.571,929.032,308.571C908.387,308.571,887.742,308.571,867.097,308.571C846.452,308.571,825.806,308.571,805.161,308.571C784.516,308.571,763.871,308.571,743.226,308.571C722.581,308.571,701.935,308.571,681.29,308.571C660.645,308.571,640,308.571,619.355,308.571C598.71,308.571,578.065,308.571,557.419,308.571C536.774,308.571,516.129,308.571,495.484,308.571C474.839,308.571,454.194,308.571,433.548,308.571C412.903,308.571,392.258,308.571,371.613,308.571C350.968,308.571,330.323,308.571,309.677,308.571C289.032,308.571,268.387,308.571,247.742,308.571C227.097,308.571,206.452,308.571,185.806,308.571C165.161,308.571,144.516,308.571,123.871,308.571C103.226,308.571,82.581,308.571,61.935,308.571C41.29,308.571,20.645,308.571,10.323,308.571L0,308.571Z"></path></g><g transform="translate(0, 925.7142857142857)"><path fill="rgb(27, 31, 0)" fill-opacity="1" d="M0,60.664L10.323,63.611C20.645,66.558,41.29,72.453,61.935,70.391C82.581,68.329,103.226,58.312,123.871,53.542C144.516,48.773,165.161,49.251,185.806,50.849C206.452,52.447,227.097,55.165,247.742,55.208C268.387,55.25,289.032,52.618,309.677,59.516C330.323,66.415,350.968,82.843,371.613,79.189C392.258,75.534,412.903,51.796,433.548,43.297C454.194,34.799,474.839,41.54,495.484,52.707C516.129,63.875,536.774,79.468,557.419,78.661C578.065,77.853,598.71,60.645,619.355,52.608C640,44.571,660.645,45.706,681.29,60.418C701.935,75.131,722.581,103.422,743.226,104.485C763.871,105.549,784.516,79.386,805.161,59.255C825.806,39.125,846.452,25.029,867.097,27.869C887.742,30.71,908.387,50.489,929.032,66.961C949.677,83.433,970.323,96.598,990.968,110.067C1011.613,123.536,1032.258,137.309,1052.903,122.076C1073.548,106.844,1094.194,62.608,1114.839,61.974C1135.484,61.34,1156.129,104.309,1176.774,114.629C1197.419,124.948,1218.065,102.618,1238.71,82.104C1259.355,61.589,1280,42.889,1300.645,31.356C1321.29,19.822,1341.935,15.455,1362.581,20.632C1383.226,25.81,1403.871,40.533,1424.516,62.737C1445.161,84.942,1465.806,114.629,1486.452,105.422C1507.097,96.214,1527.742,48.112,1548.387,28.661C1569.032,9.211,1589.677,18.411,1610.323,39.346C1630.968,60.281,1651.613,92.952,1672.258,111.381C1692.903,129.81,1713.548,133.998,1734.194,125.148C1754.839,116.298,1775.484,94.411,1796.129,80.403C1816.774,66.395,1837.419,60.266,1858.065,48.484C1878.71,36.702,1899.355,19.266,1909.677,10.548L1920,1.83L1920,154.286L1909.677,154.286C1899.355,154.286,1878.71,154.286,1858.065,154.286C1837.419,154.286,1816.774,154.286,1796.129,154.286C1775.484,154.286,1754.839,154.286,1734.194,154.286C1713.548,154.286,1692.903,154.286,1672.258,154.286C1651.613,154.286,1630.968,154.286,1610.323,154.286C1589.677,154.286,1569.032,154.286,1548.387,154.286C1527.742,154.286,1507.097,154.286,1486.452,154.286C1465.806,154.286,1445.161,154.286,1424.516,154.286C1403.871,154.286,1383.226,154.286,1362.581,154.286C1341.935,154.286,1321.29,154.286,1300.645,154.286C1280,154.286,1259.355,154.286,1238.71,154.286C1218.065,154.286,1197.419,154.286,1176.774,154.286C1156.129,154.286,1135.484,154.286,1114.839,154.286C1094.194,154.286,1073.548,154.286,1052.903,154.286C1032.258,154.286,1011.613,154.286,990.968,154.286C970.323,154.286,949.677,154.286,929.032,154.286C908.387,154.286,887.742,154.286,867.097,154.286C846.452,154.286,825.806,154.286,805.161,154.286C784.516,154.286,763.871,154.286,743.226,154.286C722.581,154.286,701.935,154.286,681.29,154.286C660.645,154.286,640,154.286,619.355,154.286C598.71,154.286,578.065,154.286,557.419,154.286C536.774,154.286,516.129,154.286,495.484,154.286C474.839,154.286,454.194,154.286,433.548,154.286C412.903,154.286,392.258,154.286,371.613,154.286C350.968,154.286,330.323,154.286,309.677,154.286C289.032,154.286,268.387,154.286,247.742,154.286C227.097,154.286,206.452,154.286,185.806,154.286C165.161,154.286,144.516,154.286,123.871,154.286C103.226,154.286,82.581,154.286,61.935,154.286C41.29,154.286,20.645,154.286,10.323,154.286L0,154.286Z"></path></g></g></svg>